<svg width="48" height="48" viewBox="0 0 48 48" fill="none" xmlns="http://www.w3.org/2000/svg">
<rect width="48" height="48" rx="12" fill="#0D1117"/>
<rect x="1" y="1" width="46" height="46" rx="11" stroke="white" stroke-opacity="0.15" stroke-width="2"/>
<path d="M24 34C29.5228 34 34 29.5228 34 24C34 18.4772 29.5228 14 24 14C18.4772 14 14 18.4772 14 24C14 29.5228 18.4772 34 24 34Z" stroke="#3FB950" stroke-width="2" stroke-linecap="round" stroke-linejoin="round"/>
<path d="M24 25C24.5523 25 25 24.5523 25 24C25 23.4477 24.5523 23 24 23C23.4477 23 23 23.4477 23 24C23 24.5523 23.4477 25 24 25Z" stroke="#3FB950" stroke-width="2" stroke-linecap="round" stroke-linejoin="round"/>
</svg>
