<svg width="48" height="48" viewBox="0 0 48 48" fill="none" xmlns="http://www.w3.org/2000/svg">
<rect width="48" height="48" rx="12" fill="#0D1117"/>
<rect x="1" y="1" width="46" height="46" rx="11" stroke="white" stroke-opacity="0.15" stroke-width="2"/>
<path d="M24 13C30.075 13 35 17.925 35 24C35 30.075 30.075 35 24 35C17.925 35 13 30.075 13 24C13 17.925 17.925 13 24 13ZM14.5 24C14.5 26.5196 15.5009 28.9359 17.2825 30.7175C19.0641 32.4991 21.4804 33.5 24 33.5C26.5196 33.5 28.9359 32.4991 30.7175 30.7175C32.4991 28.9359 33.5 26.5196 33.5 24C33.5 21.4804 32.4991 19.0641 30.7175 17.2825C28.9359 15.5009 26.5196 14.5 24 14.5C21.4804 14.5 19.0641 15.5009 17.2825 17.2825C15.5009 19.0641 14.5 21.4804 14.5 24ZM24 26C23.7337 26.006 23.4688 25.9588 23.221 25.861C22.9731 25.7633 22.7473 25.617 22.5568 25.4308C22.3663 25.2446 22.2149 25.0222 22.1115 24.7767C22.0081 24.5311 21.9549 24.2674 21.9548 24.001C21.9547 23.7346 22.0079 23.4709 22.1111 23.2253C22.2144 22.9797 22.3657 22.7572 22.5561 22.5709C22.7465 22.3846 22.9723 22.2382 23.22 22.1404C23.4678 22.0425 23.7327 21.9951 23.999 22.001C24.5216 22.0126 25.0188 22.2282 25.3844 22.6018C25.7499 22.9755 25.9547 23.4773 25.9548 24C25.9549 24.5227 25.7504 25.0247 25.3851 25.3985C25.0197 25.7723 24.5226 25.9882 24 26Z" fill="#3FB950"/>
</svg>
