<svg width="48" height="48" viewBox="0 0 48 48" fill="none" xmlns="http://www.w3.org/2000/svg">
<rect width="48" height="48" rx="12" fill="#0D1117"/>
<rect x="1" y="1" width="46" height="46" rx="11" stroke="white" stroke-opacity="0.15" stroke-width="2"/>
<path d="M17 21C18.6569 21 20 19.6569 20 18C20 16.3431 18.6569 15 17 15C15.3431 15 14 16.3431 14 18C14 19.6569 15.3431 21 17 21Z" stroke="#3FB950" stroke-width="2" stroke-linecap="round" stroke-linejoin="round"/>
<path d="M17 21V33" stroke="#3FB950" stroke-width="2" stroke-linecap="round" stroke-linejoin="round"/>
<path d="M31 33C32.6569 33 34 31.6569 34 30C34 28.3431 32.6569 27 31 27C29.3431 27 28 28.3431 28 30C28 31.6569 29.3431 33 31 33Z" stroke="#3FB950" stroke-width="2" stroke-linecap="round" stroke-linejoin="round"/>
<path d="M27 21L24 18L27 15" stroke="#3FB950" stroke-width="2" stroke-linecap="round" stroke-linejoin="round"/>
<path d="M24 18H29C29.5304 18 30.0391 18.2107 30.4142 18.5858C30.7893 18.9609 31 19.4696 31 20V27" stroke="#3FB950" stroke-width="2" stroke-linecap="round" stroke-linejoin="round"/>
</svg>
