<svg width="48" height="48" viewBox="0 0 48 48" fill="none" xmlns="http://www.w3.org/2000/svg">
<rect width="48" height="48" rx="12" fill="#0D1117"/>
<rect x="1" y="1" width="46" height="46" rx="11" stroke="white" stroke-opacity="0.15" stroke-width="2"/>
<path d="M28 31.25C28 30.388 28.3424 29.5614 28.9519 28.9519C29.5614 28.3424 30.388 28 31.25 28C32.112 28 32.9386 28.3424 33.5481 28.9519C34.1576 29.5614 34.5 30.388 34.5 31.25C34.5 32.112 34.1576 32.9386 33.5481 33.5481C32.9386 34.1576 32.112 34.5 31.25 34.5C30.388 34.5 29.5614 34.1576 28.9519 33.5481C28.3424 32.9386 28 32.112 28 31.25ZM13.5 31.25C13.5 30.388 13.8424 29.5614 14.4519 28.9519C15.0614 28.3424 15.888 28 16.75 28C17.612 28 18.4386 28.3424 19.0481 28.9519C19.6576 29.5614 20 30.388 20 31.25C20 32.112 19.6576 32.9386 19.0481 33.5481C18.4386 34.1576 17.612 34.5 16.75 34.5C15.888 34.5 15.0614 34.1576 14.4519 33.5481C13.8424 32.9386 13.5 32.112 13.5 31.25ZM13.5 16.75C13.5 15.888 13.8424 15.0614 14.4519 14.4519C15.0614 13.8424 15.888 13.5 16.75 13.5C17.612 13.5 18.4386 13.8424 19.0481 14.4519C19.6576 15.0614 20 15.888 20 16.75C20 17.612 19.6576 18.4386 19.0481 19.0481C18.4386 19.6576 17.612 20 16.75 20C15.888 20 15.0614 19.6576 14.4519 19.0481C13.8424 18.4386 13.5 17.612 13.5 16.75ZM16.75 15C16.5201 15.0001 16.2925 15.0454 16.0802 15.1334C15.8678 15.2215 15.6749 15.3505 15.5124 15.5131C15.3499 15.6757 15.221 15.8687 15.1331 16.0811C15.0451 16.2935 14.9999 16.5211 15 16.751C15.0001 16.9809 15.0454 17.2085 15.1334 17.4208C15.2215 17.6332 15.3505 17.8261 15.5131 17.9886C15.6757 18.1511 15.8687 18.28 16.0811 18.3679C16.2935 18.4559 16.5211 18.5011 16.751 18.501C17.2153 18.5009 17.6605 18.3163 17.9886 17.9879C18.3168 17.6596 18.5011 17.2143 18.501 16.75C18.5009 16.2857 18.3163 15.8405 17.9879 15.5124C17.6596 15.1842 17.2143 14.9999 16.75 15ZM16.75 29.5C16.2857 29.5001 15.8405 29.6847 15.5124 30.0131C15.1842 30.3414 14.9999 30.7867 15 31.251C15.0001 31.7153 15.1847 32.1605 15.5131 32.4886C15.8414 32.8168 16.2867 33.0011 16.751 33.001C16.9809 33.0009 17.2085 32.9556 17.4208 32.8676C17.6332 32.7795 17.8261 32.6505 17.9886 32.4879C18.1511 32.3253 18.28 32.1323 18.3679 31.9199C18.4559 31.7075 18.5011 31.4799 18.501 31.25C18.5009 31.0201 18.4556 30.7925 18.3676 30.5802C18.2795 30.3678 18.1505 30.1749 17.9879 30.0124C17.8253 29.8499 17.6323 29.721 17.4199 29.6331C17.2075 29.5451 16.9799 29.4999 16.75 29.5ZM31.25 29.5C31.0201 29.5001 30.7925 29.5454 30.5802 29.6334C30.3678 29.7215 30.1749 29.8505 30.0124 30.0131C29.8499 30.1757 29.721 30.3687 29.6331 30.5811C29.5451 30.7935 29.4999 31.0211 29.5 31.251C29.5001 31.4809 29.5454 31.7085 29.6334 31.9208C29.7215 32.1332 29.8505 32.3261 30.0131 32.4886C30.1757 32.6511 30.3687 32.78 30.5811 32.8679C30.7935 32.9559 31.0211 33.0011 31.251 33.001C31.7153 33.0009 32.1605 32.8163 32.4886 32.4879C32.8168 32.1596 33.0011 31.7143 33.001 31.25C33.0009 30.7857 32.8163 30.3405 32.4879 30.0124C32.1596 29.6842 31.7143 29.4999 31.25 29.5Z" fill="#3FB950"/>
<path d="M25.405 13.72C25.5455 13.8606 25.6243 14.0512 25.6243 14.25C25.6243 14.4488 25.5455 14.6394 25.405 14.78L24.185 16H28.25C29.2446 16 30.1984 16.3951 30.9017 17.0983C31.6049 17.8016 32 18.7554 32 19.75V28.5C32 28.6989 31.921 28.8897 31.7803 29.0303C31.6397 29.171 31.4489 29.25 31.25 29.25C31.0511 29.25 30.8603 29.171 30.7197 29.0303C30.579 28.8897 30.5 28.6989 30.5 28.5V19.75C30.5 19.1533 30.2629 18.581 29.841 18.159C29.419 17.7371 28.8467 17.5 28.25 17.5H24.186L25.406 18.72C25.5426 18.8615 25.6181 19.051 25.6163 19.2477C25.6145 19.4443 25.5355 19.6324 25.3964 19.7714C25.2572 19.9104 25.0691 19.9891 24.8725 19.9908C24.6758 19.9924 24.4864 19.9167 24.345 19.78L21.845 17.28C21.7045 17.1394 21.6257 16.9488 21.6257 16.75C21.6257 16.5512 21.7045 16.3606 21.845 16.22L24.345 13.72C24.4856 13.5795 24.6762 13.5007 24.875 13.5007C25.0738 13.5007 25.2644 13.5795 25.405 13.72ZM16.75 19.25C16.9489 19.25 17.1397 19.329 17.2803 19.4697C17.421 19.6103 17.5 19.8011 17.5 20V28C17.5 28.1989 17.421 28.3897 17.2803 28.5303C17.1397 28.671 16.9489 28.75 16.75 28.75C16.5511 28.75 16.3603 28.671 16.2197 28.5303C16.079 28.3897 16 28.1989 16 28V20C16 19.8011 16.079 19.6103 16.2197 19.4697C16.3603 19.329 16.5511 19.25 16.75 19.25Z" fill="#3FB950"/>
</svg>
